<?xml version="1.0" standalone="no"?><?xml-stylesheet type="text/css" href="https://www.processon.com/themes/default/mind/icons/icons.css" ?><!DOCTYPE svg PUBLIC "-//W3C//DTD SVG 1.1//EN" "http://www.w3.org/Graphics/SVG/1.1/DTD/svg11.dtd"><svg xmlns="http://www.w3.org/2000/svg" xlink="http://www.w3.org/1999/xlink" id="mind-svg-view-con" version="1.1" width="2598px" height="2255px"><defs></defs><g id="svgbackgroundid"><defs></defs><rect x="0" y="0" width="2598" height="2255" fill="#ffffff"></rect></g><g transform="translate(-9505, -8872)" id="sdjakdjak4"><defs></defs><g class="svg-topic-con" transform="translate(0.5,0.5)"><path part="right" sub="true" id="line_8a99f6b079ca" d="M 10000 10000 C 10000 10000 10010 8925 10525 8925" stroke="rgb(130,130,130)" fill="none" stroke-width="2"></path><path part="right" sub="true" id="line_d1dc115efd13" d="M 10000 10000 C 10000 10000 10010 9154 10525 9154" stroke="rgb(130,130,130)" fill="none" stroke-width="2"></path><path part="right" sub="true" id="line_4d05c853bd2b" d="M 10000 10000 C 10000 10000 10010 10228 10525 10228" stroke="rgb(130,130,130)" fill="none" stroke-width="2"></path></g><g class="svg-connection-con" transform="translate(0.5,0.5)"></g><g class="svg-freesums-con" transform="translate(0.5,0.5)"></g><g class="svg-freebos-con" transform="translate(0.5,0.5)"></g></g><g id="4d05c853bd2b"><rect x="1020" y="1333.5" rx="5px" ry="5px" width="91" height="46" style="fill: #ffffff; stroke:rgb(137,137,137);stroke-width:1px;"></rect><g><text text-anchor="start" align="top" anchor="start" font-size="17px" font-weight="normal" fill="rgb(68, 68, 68)" style="font-size:17px;font-family:微软雅黑;color:rgb(68,68,68);font-style:normal;text-align:left;font-weight:normal;"><tspan x="1033" y="1363.9"><tspan>Method</tspan></tspan></text></g></g><g id="5f8e5e6e2543"><rect x="1140.75" y="936" rx="1px" ry="1px" width="140" height="27" style="fill: transparent; stroke:none;"></rect><g><text text-anchor="start" align="top" anchor="start" font-size="13px" font-weight="normal" fill="rgb(68, 68, 68)" style="font-size:13px;font-family:微软雅黑;color:rgb(68,68,68);font-style:normal;text-align:left;font-weight:normal;"><tspan x="1146.75" y="955.5999999999999"><tspan>标签分布平滑（LDS）</tspan></tspan></text></g></g><g id="2b6da781b1ef"><rect x="1310.828125" y="488" rx="1px" ry="1px" width="466" height="288" style="fill: transparent; stroke:none;"></rect><g><text text-anchor="start" align="top" anchor="start" font-size="13px" font-weight="normal" fill="rgb(68, 68, 68)" style="font-size:13px;font-family:微软雅黑;color:rgb(68,68,68);font-style:normal;text-align:left;font-weight:normal;"><tspan x="1316.828125" y="748.5999999999999"><tspan>分别在CIFAR-100和IMDB-WIKI两个数据集上采样模拟数据不均衡</tspan></tspan><tspan x="1316.828125" y="769.3999999999999"><tspan> </tspan></tspan></text></g><image xmlns:xlink="http://www.w3.org/1999/xlink" xlink:href="https://cdn2.processon.com/61d98d05e4b03cc72b33246f?e=1641650966&amp;token=trhI0BY8QfVrIGn9nENop6JAc6l5nZuxhjQ62UfM:6AsFlse0FAuNFReIEfg0CPVeQVI=" transform="translate(1316.828125, 489.5)" width="454" height="241"></image></g><g id="2e653fd33c65"><rect x="1310.828125" y="784" rx="1px" ry="1px" width="708" height="310" style="fill: transparent; stroke:none;"></rect><g><text text-anchor="start" align="top" anchor="start" font-size="13px" font-weight="normal" fill="rgb(68, 68, 68)" style="font-size:13px;font-family:微软雅黑;color:rgb(68,68,68);font-style:normal;text-align:left;font-weight:normal;"><tspan x="1316.828125" y="1046.6"><tspan>使用ResNet-50模型训练并画出测试误差分布，CIFAR-100的测试误差与标签密度高度负相关（皮尔逊相关系数-0.76）。</tspan></tspan><tspan x="1316.828125" y="1067.3999999999999"><tspan>对于连续标签，其经验标签密度（empirical label density），也就是直接观测到的标签密度，不能准确反映模型或神经</tspan></tspan><tspan x="1316.828125" y="1088.1999999999998"><tspan>网络所看到的不平衡。</tspan></tspan></text></g><image xmlns:xlink="http://www.w3.org/1999/xlink" xlink:href="https://cdn2.processon.com/61d98d7ee4b04513eae1ebb0?e=1641651086&amp;token=trhI0BY8QfVrIGn9nENop6JAc6l5nZuxhjQ62UfM:CAPG4yXso8aMA7rnIyvx19qrKpg=" transform="translate(1316.828125, 785.5)" width="454" height="243"></image></g><g id="9e4d4b6a4c02"><rect x="2048.546875" y="915.5" rx="1px" ry="1px" width="519" height="47" style="fill: transparent; stroke:none;"></rect><g><text text-anchor="start" align="top" anchor="start" font-size="13px" font-weight="normal" fill="rgb(68, 68, 68)" style="font-size:13px;font-family:微软雅黑;color:rgb(68,68,68);font-style:normal;text-align:left;font-weight:normal;"><tspan x="2054.546875" y="935.0999999999999"><tspan>所有不平衡的学习方法都是通过直接或间接地补偿经验标签密度分布的不平衡来运作的，</tspan></tspan><tspan x="2054.546875" y="955.8999999999999"><tspan>而基于经验标签密度补偿数据不平衡对于连续标签空间是不准确的</tspan></tspan></text></g></g><g id="b185a0982c73"><rect x="1310.828125" y="1152.5" rx="1px" ry="1px" width="369" height="208" style="fill: transparent; stroke:none;"></rect><g><text text-anchor="start" align="top" anchor="start" font-size="13px" font-weight="normal" fill="rgb(68, 68, 68)" style="font-size:13px;font-family:微软雅黑;color:rgb(68,68,68);font-style:normal;text-align:left;font-weight:normal;"><tspan x="1316.828125" y="1353.1"><tspan>使用对称核与经验密度分布进行卷积</tspan></tspan></text></g><image xmlns:xlink="http://www.w3.org/1999/xlink" xlink:href="https://cdn2.processon.com/61d98f63e4b061a3f5014e21?e=1641651571&amp;token=trhI0BY8QfVrIGn9nENop6JAc6l5nZuxhjQ62UfM:09J4blTJNz_W05J7e_xKwmbrjAg=" transform="translate(1316.828125, 1154)" width="357" height="181"></image></g><g id="2f451f9cc999"><rect x="1709.828125" y="1102" rx="1px" ry="1px" width="389" height="309" style="fill: transparent; stroke:none;"></rect><g><text text-anchor="start" align="top" anchor="start" font-size="13px" font-weight="normal" fill="rgb(68, 68, 68)" style="font-size:13px;font-family:微软雅黑;color:rgb(68,68,68);font-style:normal;text-align:left;font-weight:normal;"></text></g><image xmlns:xlink="http://www.w3.org/1999/xlink" xlink:href="https://cdn2.processon.com/61d99086e4b061c782e33e62?e=1641651862&amp;token=trhI0BY8QfVrIGn9nENop6JAc6l5nZuxhjQ62UfM:SDx-099X9LCTptYXBEPUU9wvUXU=" transform="translate(1715.828125, 1103.5)" width="377" height="283"></image></g><g id="33a6f12fc300"><rect x="1140.75" y="1808.5" rx="1px" ry="1px" width="140" height="27" style="fill: transparent; stroke:none;"></rect><g><text text-anchor="start" align="top" anchor="start" font-size="13px" font-weight="normal" fill="rgb(68, 68, 68)" style="font-size:13px;font-family:微软雅黑;color:rgb(68,68,68);font-style:normal;text-align:left;font-weight:normal;"><tspan x="1146.75" y="1828.1"><tspan>特征分布平滑（FDS）</tspan></tspan></text></g></g><g id="bdc89dabea69"><rect x="1311.0625" y="1419" rx="1px" ry="1px" width="475" height="240" style="fill: transparent; stroke:none;"></rect><g><text text-anchor="start" align="top" anchor="start" font-size="13px" font-weight="normal" fill="rgb(68, 68, 68)" style="font-size:13px;font-family:微软雅黑;color:rgb(68,68,68);font-style:normal;text-align:left;font-weight:normal;"></text></g><image xmlns:xlink="http://www.w3.org/1999/xlink" xlink:href="https://cdn2.processon.com/61d9943be4b0eb10c9a8816d?e=1641652811&amp;token=trhI0BY8QfVrIGn9nENop6JAc6l5nZuxhjQ62UfM:LUPgfFeykcbnbydvK1hoMCJTkPg=" transform="translate(1317.0625, 1420.5)" width="463" height="214"></image></g><g id="b9a639d36714"><rect x="1311.0625" y="1667" rx="1px" ry="1px" width="331" height="235" style="fill: transparent; stroke:none;"></rect><g><text text-anchor="start" align="top" anchor="start" font-size="13px" font-weight="normal" fill="rgb(68, 68, 68)" style="font-size:13px;font-family:微软雅黑;color:rgb(68,68,68);font-style:normal;text-align:left;font-weight:normal;"></text></g><image xmlns:xlink="http://www.w3.org/1999/xlink" xlink:href="https://cdn2.processon.com/61d99550e4b0654414251407?e=1641653088&amp;token=trhI0BY8QfVrIGn9nENop6JAc6l5nZuxhjQ62UfM:8Hxf1ciQsL78Ek3YSydrmZ-z120=" transform="translate(1317.0625, 1668.5)" width="319" height="209"></image></g><g id="28e5304279eb"><rect x="1672.0625" y="1753.5" rx="1px" ry="1px" width="220" height="27" style="fill: transparent; stroke:none;"></rect><g><text text-anchor="start" align="top" anchor="start" font-size="13px" font-weight="normal" fill="rgb(68, 68, 68)" style="font-size:13px;font-family:微软雅黑;color:rgb(68,68,68);font-style:normal;text-align:left;font-weight:normal;"><tspan x="1678.0625" y="1773.1"><tspan>数据足够时，特征在邻近点是相似的</tspan></tspan></text></g></g><g id="1e01e992035d"><rect x="1672.0625" y="1788.5" rx="1px" ry="1px" width="412" height="27" style="fill: transparent; stroke:none;"></rect><g><text text-anchor="start" align="top" anchor="start" font-size="13px" font-weight="normal" fill="rgb(68, 68, 68)" style="font-size:13px;font-family:微软雅黑;color:rgb(68,68,68);font-style:normal;text-align:left;font-weight:normal;"><tspan x="1678.0625" y="1808.1"><tspan>0-6岁区间的均值和方差与30岁的特征统计量高度相似，这是不合理的</tspan></tspan></text></g></g><g id="e7124b0eeec0"><rect x="1311.0625" y="1913" rx="1px" ry="1px" width="513" height="309" style="fill: transparent; stroke:none;"></rect><g><text text-anchor="start" align="top" anchor="start" font-size="13px" font-weight="normal" fill="rgb(68, 68, 68)" style="font-size:13px;font-family:微软雅黑;color:rgb(68,68,68);font-style:normal;text-align:left;font-weight:normal;"></text></g><image xmlns:xlink="http://www.w3.org/1999/xlink" xlink:href="https://cdn2.processon.com/61d996b5e4b05066bc62878b?e=1641653445&amp;token=trhI0BY8QfVrIGn9nENop6JAc6l5nZuxhjQ62UfM:ri009iiwhI8FMMZUpQDP3CavDbU=" transform="translate(1317.0625, 1914.5)" width="501" height="283"></image></g><g id="ff703f989900"><rect x="1854.0625" y="1910" rx="1px" ry="1px" width="322" height="130" style="fill: transparent; stroke:none;"></rect><g><text text-anchor="start" align="top" anchor="start" font-size="13px" font-weight="normal" fill="rgb(68, 68, 68)" style="font-size:13px;font-family:微软雅黑;color:rgb(68,68,68);font-style:normal;text-align:left;font-weight:normal;"></text></g><image xmlns:xlink="http://www.w3.org/1999/xlink" xlink:href="https://cdn2.processon.com/61d996f8e4b0b0d6aeab1c04?e=1641653513&amp;token=trhI0BY8QfVrIGn9nENop6JAc6l5nZuxhjQ62UfM:ay8lzm2JD51fNovRCPf2aeoIg_0=" transform="translate(1860.0625, 1911.5)" width="310" height="104"></image></g><g id="845a8c4d9890"><rect x="1854.0625" y="2048" rx="1px" ry="1px" width="318" height="106" style="fill: transparent; stroke:none;"></rect><g><text text-anchor="start" align="top" anchor="start" font-size="13px" font-weight="normal" fill="rgb(68, 68, 68)" style="font-size:13px;font-family:微软雅黑;color:rgb(68,68,68);font-style:normal;text-align:left;font-weight:normal;"></text></g><image xmlns:xlink="http://www.w3.org/1999/xlink" xlink:href="https://cdn2.processon.com/61d99717e4b0d8ff0e031f7a?e=1641653543&amp;token=trhI0BY8QfVrIGn9nENop6JAc6l5nZuxhjQ62UfM:tW0idPOpmyNDq2KOAvRIO8i2_Pc=" transform="translate(1860.0625, 2049.5)" width="306" height="80"></image></g><g id="d295999fc356"><rect x="1854.0625" y="2162" rx="1px" ry="1px" width="335" height="63" style="fill: transparent; stroke:none;"></rect><g><text text-anchor="start" align="top" anchor="start" font-size="13px" font-weight="normal" fill="rgb(68, 68, 68)" style="font-size:13px;font-family:微软雅黑;color:rgb(68,68,68);font-style:normal;text-align:left;font-weight:normal;"></text></g><image xmlns:xlink="http://www.w3.org/1999/xlink" xlink:href="https://cdn2.processon.com/61d99796e4b0dca626645abe?e=1641653670&amp;token=trhI0BY8QfVrIGn9nENop6JAc6l5nZuxhjQ62UfM:XT7aCnGrM1rtHDnCrZED5MZ0nPE=" transform="translate(1860.0625, 2163.5)" width="323" height="37"></image></g><g id="d1dc115efd13"><rect x="1020" y="259" rx="5px" ry="5px" width="124" height="46" style="fill: #ffffff; stroke:rgb(137,137,137);stroke-width:1px;"></rect><g><text text-anchor="start" align="top" anchor="start" font-size="17px" font-weight="normal" fill="rgb(68, 68, 68)" style="font-size:17px;font-family:微软雅黑;color:rgb(68,68,68);font-style:normal;text-align:left;font-weight:normal;"><tspan x="1033" y="289.4"><tspan>Background</tspan></tspan></text></g></g><g id="da2ab9bbed71"><rect x="1173.84375" y="102" rx="1px" ry="1px" width="168" height="27" style="fill: transparent; stroke:none;"></rect><g><text text-anchor="start" align="top" anchor="start" font-size="13px" font-weight="normal" fill="rgb(68, 68, 68)" style="font-size:13px;font-family:微软雅黑;color:rgb(68,68,68);font-style:normal;text-align:left;font-weight:normal;"><tspan x="1179.84375" y="121.6"><tspan>回归任务上数据的长尾效应</tspan></tspan></text></g></g><g id="04a7540b9b21"><rect x="1173.84375" y="268.5" rx="1px" ry="1px" width="90" height="27" style="fill: transparent; stroke:none;"></rect><g><text text-anchor="start" align="top" anchor="start" font-size="13px" font-weight="normal" fill="rgb(68, 68, 68)" style="font-size:13px;font-family:微软雅黑;color:rgb(68,68,68);font-style:normal;text-align:left;font-weight:normal;"><tspan x="1179.84375" y="288.1"><tspan>年龄预测任务</tspan></tspan></text></g></g><g id="4de0a37c6c13"><rect x="1293.84375" y="137" rx="1px" ry="1px" width="226" height="290" style="fill: transparent; stroke:none;"></rect><g><text text-anchor="end" align="top" anchor="end" font-size="13px" font-weight="normal" fill="rgb(68, 68, 68)" style="font-size:13px;font-family:微软雅黑;color:rgb(68,68,68);font-style:normal;text-align:right;font-weight:normal;"><tspan x="1409.84375" y="419.6"><tspan>IMDB-WIKI数据集</tspan></tspan></text></g><image xmlns:xlink="http://www.w3.org/1999/xlink" xlink:href="https://cdn2.processon.com/61d98ab1e4b0f23257fe6c7e?e=1641650370&amp;token=trhI0BY8QfVrIGn9nENop6JAc6l5nZuxhjQ62UfM:JJlWKB2PxW6K1Mu9vX6Vtm0rmKU=" transform="translate(1299.84375, 138.5)" width="214" height="263"></image></g><g id="c6e374ba270d"><rect x="1550.1875" y="268.5" rx="1px" ry="1px" width="194" height="27" style="fill: transparent; stroke:none;"></rect><g><text text-anchor="start" align="top" anchor="start" font-size="13px" font-weight="normal" fill="rgb(68, 68, 68)" style="font-size:13px;font-family:微软雅黑;color:rgb(68,68,68);font-style:normal;text-align:left;font-weight:normal;"><tspan x="1556.1875" y="288.1"><tspan>附近年龄人群间特征具有相似性</tspan></tspan></text></g></g><g id="6bb117f3d87f"><rect x="1173.84375" y="435" rx="1px" ry="1px" width="324" height="27" style="fill: transparent; stroke:none;"></rect><g><text text-anchor="start" align="top" anchor="start" font-size="13px" font-weight="normal" fill="rgb(68, 68, 68)" style="font-size:13px;font-family:微软雅黑;color:rgb(68,68,68);font-style:normal;text-align:left;font-weight:normal;"><tspan x="1179.84375" y="454.6"><tspan>现有的不平衡学习方法主要考虑的是具有硬边界的数据</tspan></tspan></text></g></g><g id="8a99f6b079ca"><rect x="1020" y="30" rx="5px" ry="5px" width="473" height="46" style="fill: #ffffff; stroke:rgb(137,137,137);stroke-width:1px;"></rect><g><text text-anchor="start" align="top" anchor="start" font-size="17px" font-weight="normal" fill="rgb(68, 68, 68)" style="font-size:17px;font-family:微软雅黑;color:rgb(68,68,68);font-style:normal;text-align:left;font-weight:normal;"><tspan x="1033" y="60.400000000000006"><tspan>知乎链接：https://zhuanlan.zhihu.com/p/369627086</tspan></tspan></text></g><a href="https://zhuanlan.zhihu.com/p/369627086" target="_blank" style="cursor:pointer;"><rect x="1459.90625" y="44.5" width="20" height="17" style="fill: transparent;"></rect><path d="M616.601336 477.134935c0-96.148827-76.528977-174.34477-170.628122-174.34477l-138.339742 0.027629c-98.788957 0.007163-179.177845 78.195943-179.177845 174.330444l0.017396 69.698408c-0.024559 96.15292 80.406285 174.359097 179.205475 174.359097l38.696324 0.00307c19.815301-0.024559 35.851533-15.624862 35.848463-34.882462 0.00307-19.250436-16.032138-34.853809-35.823903-34.853809l-38.749536 0c-59.268872-0.007163-109.451808-46.925752-109.465111-104.604406l0-69.733201c0-57.668421 50.154283-104.58394 109.462041-104.594173l138.329509-0.024559c56.472176 0.024559 100.867292 46.911426 100.890828 104.618732l1.496074 34.872229c0 9.627265 3.810792 18.365276 9.969049 24.65554 6.178723 6.310729 14.728446 10.209526 24.153096 10.206456 18.84623 0.00307 34.118052-15.600303 34.118052-34.860972L616.601336 477.134935zM895.526977 477.152331c0.024559-96.148827-80.406285-174.355003-179.205475-174.359097l-38.696324-0.00307c-19.815301 0.024559-35.851533 15.627932-35.851533 34.882462 0 19.254529 16.036231 34.853809 35.826973 34.857902l38.745443 0c59.268872 0.00307 109.451808 46.922682 109.469204 104.604406l0 69.733201c0 57.668421-50.154283 104.58394-109.462041 104.591103l-138.329509 0.027629c-56.472176-0.024559-100.867292-46.911426-100.890828-104.618732l-1.496074-34.872229c0-9.630335-3.810792-18.365276-9.969049-24.65554-6.181793-6.314823-14.728446-10.209526-24.153096-10.205433-18.84623-0.007163-34.119075 15.600303-34.119075 34.860972l0 34.872229c0 96.145757 76.532047 174.340677 170.631192 174.340677l138.339742-0.024559c98.788957-0.007163 179.177845-78.199013 179.173752-174.330444L895.526977 477.152331z" fill="#0072fc" transform="translate(1459.90625, 44.5) scale(0.017578125)"></path></a></g><g transform="translate(1020, 488)" id="sdjakdjak0"><g id="subline_4d05c853bd2b" transform="translate(0.5,-1.5)"><path id="line_5f8e5e6e2543" d="M 91 870 L 107 870 C 115 870 100.75 461 120.75 461" p="4d05c853bd2b" stroke="rgb(130,130,130)" stroke-linecap="round" fill="none" stroke-width="1"></path><path id="line_2b6da781b1ef" d="M 260.75 461 L 276.75 461 C 284.75 461 270.828125 144 290.828125 144" p="5f8e5e6e2543" stroke="rgb(130,130,130)" stroke-linecap="round" fill="none" stroke-width="1"></path><path id="line_2e653fd33c65" d="M 260.75 461 L 276.75 461 C 284.75 461 270.828125 451 290.828125 451" p="5f8e5e6e2543" stroke="rgb(130,130,130)" stroke-linecap="round" fill="none" stroke-width="1"></path><path id="line_9e4d4b6a4c02" d="M 998.828125 451 L 1014.828125 451 C 1022.828125 451 1008.546875 451 1028.546875 451" p="2e653fd33c65" stroke="rgb(130,130,130)" stroke-linecap="round" fill="none" stroke-width="1"></path><path id="line_b185a0982c73" d="M 260.75 461 L 276.75 461 C 284.75 461 270.828125 768 290.828125 768" p="5f8e5e6e2543" stroke="rgb(130,130,130)" stroke-linecap="round" fill="none" stroke-width="1"></path><path id="line_2f451f9cc999" d="M 659.828125 768 L 675.828125 768 C 683.828125 768 669.828125 768 689.828125 768" p="b185a0982c73" stroke="rgb(130,130,130)" stroke-linecap="round" fill="none" stroke-width="1"></path><path id="line_33a6f12fc300" d="M 91 870 L 107 870 C 115 870 100.75 1334 120.75 1334" p="4d05c853bd2b" stroke="rgb(130,130,130)" stroke-linecap="round" fill="none" stroke-width="1"></path><path id="line_bdc89dabea69" d="M 260.75 1334 L 276.75 1334 C 284.75 1334 271.0625 1051 291.0625 1051" p="33a6f12fc300" stroke="rgb(130,130,130)" stroke-linecap="round" fill="none" stroke-width="1"></path><path id="line_b9a639d36714" d="M 260.75 1334 L 276.75 1334 C 284.75 1334 271.0625 1296 291.0625 1296" p="33a6f12fc300" stroke="rgb(130,130,130)" stroke-linecap="round" fill="none" stroke-width="1"></path><path id="line_28e5304279eb" d="M 622.0625 1296 L 638.0625 1296 C 646.0625 1296 632.0625 1279 652.0625 1279" p="b9a639d36714" stroke="rgb(130,130,130)" stroke-linecap="round" fill="none" stroke-width="1"></path><path id="line_1e01e992035d" d="M 622.0625 1296 L 638.0625 1296 C 646.0625 1296 632.0625 1314 652.0625 1314" p="b9a639d36714" stroke="rgb(130,130,130)" stroke-linecap="round" fill="none" stroke-width="1"></path><path id="line_e7124b0eeec0" d="M 260.75 1334 L 276.75 1334 C 284.75 1334 271.0625 1579 291.0625 1579" p="33a6f12fc300" stroke="rgb(130,130,130)" stroke-linecap="round" fill="none" stroke-width="1"></path><path id="line_ff703f989900" d="M 804.0625 1579 L 820.0625 1579 C 828.0625 1579 814.0625 1487 834.0625 1487" p="e7124b0eeec0" stroke="rgb(130,130,130)" stroke-linecap="round" fill="none" stroke-width="1"></path><path id="line_845a8c4d9890" d="M 804.0625 1579 L 820.0625 1579 C 828.0625 1579 814.0625 1613 834.0625 1613" p="e7124b0eeec0" stroke="rgb(130,130,130)" stroke-linecap="round" fill="none" stroke-width="1"></path><path id="line_d295999fc356" d="M 804.0625 1579 L 820.0625 1579 C 828.0625 1579 814.0625 1705 834.0625 1705" p="e7124b0eeec0" stroke="rgb(130,130,130)" stroke-linecap="round" fill="none" stroke-width="1"></path></g><g transform="translate(0.5,-0.5)"></g><g class="svg-summary-con" transform="translate(0.5,-0.5)"></g><g class="svg-boundary-con" transform="translate(0.5,-0.5)"></g></g><g transform="translate(1020, 102)" id="sdjakdjak1"><g id="subline_d1dc115efd13" transform="translate(0.5,-1.5)"><path id="line_da2ab9bbed71" d="M 124 181 L 140 181 C 148 181 133.84375 13 153.84375 13" p="d1dc115efd13" stroke="rgb(130,130,130)" stroke-linecap="round" fill="none" stroke-width="1"></path><path id="line_04a7540b9b21" d="M 124 181 L 140 181 C 148 181 133.84375 181 153.84375 181" p="d1dc115efd13" stroke="rgb(130,130,130)" stroke-linecap="round" fill="none" stroke-width="1"></path><path id="line_4de0a37c6c13" d="M 243.84375 181 L 259.84375 181 C 267.84375 181 253.84375 181 273.84375 181" p="04a7540b9b21" stroke="rgb(130,130,130)" stroke-linecap="round" fill="none" stroke-width="1"></path><path id="line_c6e374ba270d" d="M 499.84375 181 L 515.84375 181 C 523.84375 181 510.1875 181 530.1875 181" p="4de0a37c6c13" stroke="rgb(130,130,130)" stroke-linecap="round" fill="none" stroke-width="1"></path><path id="line_6bb117f3d87f" d="M 124 181 L 140 181 C 148 181 133.84375 346 153.84375 346" p="d1dc115efd13" stroke="rgb(130,130,130)" stroke-linecap="round" fill="none" stroke-width="1"></path></g><g transform="translate(0.5,-0.5)"></g><g class="svg-summary-con" transform="translate(0.5,-0.5)"></g><g class="svg-boundary-con" transform="translate(0.5,-0.5)"></g></g><g transform="translate(1020, 30)" id="sdjakdjak2"><g id="subline_8a99f6b079ca" transform="translate(0.5,-1.5)"></g><g transform="translate(0.5,-0.5)"></g><g class="svg-summary-con" transform="translate(0.5,-0.5)"></g><g class="svg-boundary-con" transform="translate(0.5,-0.5)"></g></g><g transform="translate(30, 1052.5)" id="sdjakdjak3"><g id="subline_root" transform="translate(0.5,-1.5)"></g><g transform="translate(0.5,-0.5)"></g><g class="svg-summary-con" transform="translate(0.5,-0.5)"></g><g class="svg-boundary-con" transform="translate(0.5,-0.5)"></g></g><g id="root"><rect x="30" y="1052.5" rx="5px" ry="5px" width="930" height="151" style="fill: #50C28B; stroke:none;"></rect><g><text text-anchor="middle" align="top" anchor="middle" font-size="26px" font-weight="normal" fill="rgb(255, 255, 255)" style="font-size:26px;font-family:微软雅黑;color:#fff;font-style:normal;text-align:center;font-weight:normal;"><tspan x="496" y="1098.6999999999998"><tspan>Delving into Deep Imbalanced Regression</tspan></tspan><tspan x="496" y="1140.2999999999997"><tspan>Yang Y , Zha K , Chen Y C , et al. Delving into Deep Imbalanced Regressi</tspan></tspan><tspan x="496" y="1181.8999999999996"><tspan>on[J]. 2021.</tspan></tspan></text></g></g></svg>